<svg width="28" height="28" viewBox="0 0 28 28" fill="none" xmlns="http://www.w3.org/2000/svg">
<g clip-path="url(#clip0_2637_7971)">
<path fill-rule="evenodd" clip-rule="evenodd" d="M14 0C6.2685 0 0 6.2685 0 14C0 21.7315 6.2685 28 14 28C21.7315 28 28 21.7315 28 14C28 6.2685 21.7315 0 14 0ZM20.489 9.52117C20.279 11.7343 19.3667 17.1068 18.9035 19.586C18.7075 20.636 18.3202 20.9872 17.9468 21.021C17.1337 21.0957 16.5165 20.4832 15.729 19.9675C14.497 19.1602 13.8005 18.6573 12.6047 17.8687C11.2222 16.9575 12.1182 16.457 12.9057 15.6392C13.1122 15.4245 16.6938 12.166 16.7638 11.8708C16.772 11.8335 16.7813 11.6958 16.6985 11.6235C16.6157 11.5512 16.4955 11.5757 16.4092 11.5955C16.2855 11.6235 14.3173 12.9243 10.5035 15.498C9.94467 15.8818 9.43833 16.0685 8.9845 16.0592C8.48517 16.0487 7.52383 15.7768 6.80867 15.5435C5.9325 15.2588 5.23483 15.1072 5.2955 14.6242C5.327 14.3722 5.6735 14.1143 6.33617 13.8507C10.4172 12.0727 13.139 10.9002 14.5005 10.3332C18.389 8.71617 19.1963 8.435 19.7237 8.42567C20.384 8.41633 20.5427 8.96117 20.489 9.52117Z" fill="white"/>
</g>
<defs>
<clipPath id="clip0_2637_7971">
<rect width="28" height="28" fill="white"/>
</clipPath>
</defs>
</svg>
