<svg width="110" height="24" viewBox="0 0 110 24" fill="none" xmlns="http://www.w3.org/2000/svg">
<path d="M88.4277 24L96.0445 11.7257L88.8026 0H94.119L99.2309 8.4L104.632 0H109.795L102.247 11.8286L110 24H104.65L99.0434 15.0686L93.6248 24H88.4277Z" fill="#1A1A1A"/>
<path d="M80.2266 24V0H84.6569V24H80.2266Z" fill="#1A1A1A"/>
<path d="M58.3613 24V0H66.8982C69.227 0 71.1013 0.514286 72.5213 1.54286C73.9526 2.56 74.6683 4.06857 74.6683 6.06857C74.6683 7.18857 74.2991 8.20571 73.5607 9.12C72.8337 10.0229 72.0101 10.6686 71.09 11.0571C72.385 11.48 73.4528 12.2229 74.2934 13.2857C75.134 14.3371 75.5544 15.6286 75.5544 17.16C75.5544 18.5086 75.2136 19.6971 74.532 20.7257C73.8504 21.7543 72.8848 22.56 71.6352 23.1429C70.397 23.7143 68.9259 24 67.222 24H58.3613ZM62.7916 10.1143H66.2507C67.5003 10.1143 68.4943 9.81143 69.2326 9.20572C69.9824 8.58857 70.3573 7.73714 70.3573 6.65143C70.3573 5.6 69.9937 4.8 69.2667 4.25143C68.5397 3.69143 67.5116 3.41143 66.1825 3.41143H62.7916V10.1143ZM62.7916 20.5886H66.5233C69.4882 20.5886 70.9707 19.3886 70.9707 16.9886C70.9707 15.8114 70.6015 14.9086 69.8631 14.28C69.1361 13.6514 68.0285 13.3371 66.5404 13.3371H62.7916V20.5886Z" fill="#1A1A1A"/>
<path d="M37.2285 24V0H53.0924V3.90857H41.6588V9.72H51.4396V13.3714H41.6588V20.0571H53.2117V24H37.2285Z" fill="#1A1A1A"/>
<path d="M7.20778 24L0 0H4.61775L9.45702 17.6229L14.5689 0H19.1015L24.1963 17.6057L29.0356 0H33.5341L26.3433 24H21.7937L16.7841 6.65143L11.7233 24H7.20778Z" fill="#1A1A1A"/>
</svg>
