<svg width="28" height="28" viewBox="0 0 28 28" fill="none" xmlns="http://www.w3.org/2000/svg">
<g clip-path="url(#clip0_2637_7983)">
<path fill-rule="evenodd" clip-rule="evenodd" d="M23.8735 4.06933C21.2532 1.44667 17.7695 0.00116667 14.0584 0C6.41086 0 0.186695 6.223 0.183195 13.874C0.182028 16.3193 0.821361 18.7063 2.03586 20.811L0.0665283 28L7.42119 26.0703C9.44769 27.1763 11.7297 27.7585 14.0514 27.7597H14.0572C21.7035 27.7597 27.9289 21.5355 27.9324 13.8845C27.9347 10.178 26.4927 6.69083 23.8735 4.06933ZM14.0584 25.4158H14.0537C11.984 25.4158 9.95519 24.8593 8.18419 23.8082L7.76303 23.5585L3.39853 24.703L4.56403 20.447L4.28986 20.0107C3.13486 18.1743 2.52586 16.0522 2.52703 13.874C2.52936 7.51567 7.70353 2.34267 14.0642 2.34267C17.1442 2.34267 20.0399 3.54433 22.2169 5.72367C24.3939 7.90417 25.592 10.801 25.5909 13.8822C25.5874 20.2428 20.4144 25.4158 14.0584 25.4158ZM20.384 16.779C20.0375 16.6052 18.333 15.7663 18.0145 15.6508C17.6972 15.5353 17.4662 15.477 17.234 15.8235C17.0019 16.17 16.3392 16.9517 16.1362 17.1838C15.9344 17.4148 15.7314 17.444 15.3849 17.2702C15.0384 17.0963 13.9207 16.7312 12.5965 15.5493C11.5664 14.63 10.8699 13.4948 10.668 13.1472C10.4662 12.7995 10.647 12.6128 10.8197 12.4402C10.976 12.285 11.1662 12.0353 11.34 11.8323C11.515 11.6317 11.5722 11.487 11.6889 11.2548C11.8044 11.0238 11.7472 10.8208 11.6597 10.647C11.5722 10.4743 10.8792 8.7675 10.591 8.07333C10.3099 7.39667 10.024 7.48883 9.81053 7.47833C9.6087 7.46783 9.37769 7.46667 9.14553 7.46667C8.91453 7.46667 8.53886 7.553 8.22153 7.90067C7.90419 8.24833 7.00819 9.08717 7.00819 10.7928C7.00819 12.4997 8.25069 14.1482 8.42336 14.3792C8.59603 14.6102 10.8675 18.1125 14.3454 19.614C15.1725 19.971 15.8189 20.1845 16.3217 20.3443C17.1524 20.608 17.9084 20.5707 18.5057 20.482C19.1719 20.3828 20.5567 19.6432 20.846 18.8335C21.1354 18.0238 21.1354 17.3285 21.0479 17.185C20.9615 17.0392 20.7305 16.9528 20.384 16.779Z" fill="white"/>
</g>
<defs>
<clipPath id="clip0_2637_7983">
<rect width="28" height="28" fill="white"/>
</clipPath>
</defs>
</svg>
